<?xml version="1.0" encoding="UTF-8" standalone="no"?>
<!DOCTYPE svg PUBLIC "-//W3C//DTD SVG 1.1//EN"
 "http://www.w3.org/Graphics/SVG/1.1/DTD/svg11.dtd">
<!-- Generated by graphviz version 12.2.1 (20241206.2353)
 -->
<!-- Title: G Pages: 1 -->
<svg width="813pt" height="1411pt"
 viewBox="0.00 0.00 813.20 1410.95" xmlns="http://www.w3.org/2000/svg" xmlns:xlink="http://www.w3.org/1999/xlink">
<g id="graph0" class="graph" transform="scale(1 1) rotate(0) translate(21.6 1389.35)">
<title>G</title>
<polygon fill="#111111" stroke="none" points="-21.6,21.6 -21.6,-1389.35 791.6,-1389.35 791.6,21.6 -21.6,21.6"/>
<!-- .next/server/components_aircraft_tracking_Map_index_ts.js -->
<g id="node1" class="node">
<title>.next/server/components_aircraft_tracking_Map_index_ts.js</title>
<path fill="none" stroke="#cfffac" d="M386.08,-23.75C386.08,-23.75 28.17,-23.75 28.17,-23.75 24.21,-23.75 20.25,-19.79 20.25,-15.83 20.25,-15.83 20.25,-7.92 20.25,-7.92 20.25,-3.96 24.21,0 28.17,0 28.17,0 386.08,0 386.08,0 390.04,0 394,-3.96 394,-7.92 394,-7.92 394,-15.83 394,-15.83 394,-19.79 390.04,-23.75 386.08,-23.75"/>
<text text-anchor="middle" x="207.12" y="-6.45" font-family="Arial" font-size="14.00" fill="#cfffac">.next/server/components_aircraft_tracking_Map_index_ts.js</text>
</g>
<!-- .next/server/interception&#45;route&#45;rewrite&#45;manifest.js -->
<g id="node2" class="node">
<title>.next/server/interception&#45;route&#45;rewrite&#45;manifest.js</title>
<path fill="none" stroke="#cfffac" d="M354.21,-65.75C354.21,-65.75 60.04,-65.75 60.04,-65.75 56.08,-65.75 52.12,-61.79 52.12,-57.83 52.12,-57.83 52.12,-49.92 52.12,-49.92 52.12,-45.96 56.08,-42 60.04,-42 60.04,-42 354.21,-42 354.21,-42 358.17,-42 362.12,-45.96 362.12,-49.92 362.12,-49.92 362.12,-57.83 362.12,-57.83 362.12,-61.79 358.17,-65.75 354.21,-65.75"/>
<text text-anchor="middle" x="207.12" y="-48.45" font-family="Arial" font-size="14.00" fill="#cfffac">.next/server/interception&#45;route&#45;rewrite&#45;manifest.js</text>
</g>
<!-- .next/server/middleware&#45;build&#45;manifest.js -->
<g id="node3" class="node">
<title>.next/server/middleware&#45;build&#45;manifest.js</title>
<path fill="none" stroke="#cfffac" d="M330.58,-107.75C330.58,-107.75 83.67,-107.75 83.67,-107.75 79.71,-107.75 75.75,-103.79 75.75,-99.83 75.75,-99.83 75.75,-91.92 75.75,-91.92 75.75,-87.96 79.71,-84 83.67,-84 83.67,-84 330.58,-84 330.58,-84 334.54,-84 338.5,-87.96 338.5,-91.92 338.5,-91.92 338.5,-99.83 338.5,-99.83 338.5,-103.79 334.54,-107.75 330.58,-107.75"/>
<text text-anchor="middle" x="207.12" y="-90.45" font-family="Arial" font-size="14.00" fill="#cfffac">.next/server/middleware&#45;build&#45;manifest.js</text>
</g>
<!-- .next/server/middleware&#45;react&#45;loadable&#45;manifest.js -->
<g id="node4" class="node">
<title>.next/server/middleware&#45;react&#45;loadable&#45;manifest.js</title>
<path fill="none" stroke="#cfffac" d="M359.08,-149.75C359.08,-149.75 55.17,-149.75 55.17,-149.75 51.21,-149.75 47.25,-145.79 47.25,-141.83 47.25,-141.83 47.25,-133.92 47.25,-133.92 47.25,-129.96 51.21,-126 55.17,-126 55.17,-126 359.08,-126 359.08,-126 363.04,-126 367,-129.96 367,-133.92 367,-133.92 367,-141.83 367,-141.83 367,-145.79 363.04,-149.75 359.08,-149.75"/>
<text text-anchor="middle" x="207.12" y="-132.45" font-family="Arial" font-size="14.00" fill="#cfffac">.next/server/middleware&#45;react&#45;loadable&#45;manifest.js</text>
</g>
<!-- .next/server/next&#45;font&#45;manifest.js -->
<g id="node5" class="node">
<title>.next/server/next&#45;font&#45;manifest.js</title>
<path fill="none" stroke="#cfffac" d="M305.46,-191.75C305.46,-191.75 108.79,-191.75 108.79,-191.75 104.83,-191.75 100.88,-187.79 100.88,-183.83 100.88,-183.83 100.88,-175.92 100.88,-175.92 100.88,-171.96 104.83,-168 108.79,-168 108.79,-168 305.46,-168 305.46,-168 309.42,-168 313.38,-171.96 313.38,-175.92 313.38,-175.92 313.38,-183.83 313.38,-183.83 313.38,-187.79 309.42,-191.75 305.46,-191.75"/>
<text text-anchor="middle" x="207.12" y="-174.45" font-family="Arial" font-size="14.00" fill="#cfffac">.next/server/next&#45;font&#45;manifest.js</text>
</g>
<!-- .next/server/pages/_app.js -->
<g id="node6" class="node">
<title>.next/server/pages/_app.js</title>
<path fill="none" stroke="#c6c5fe" d="M286.33,-359.75C286.33,-359.75 127.92,-359.75 127.92,-359.75 123.96,-359.75 120,-355.79 120,-351.83 120,-351.83 120,-343.92 120,-343.92 120,-339.96 123.96,-336 127.92,-336 127.92,-336 286.33,-336 286.33,-336 290.29,-336 294.25,-339.96 294.25,-343.92 294.25,-343.92 294.25,-351.83 294.25,-351.83 294.25,-355.79 290.29,-359.75 286.33,-359.75"/>
<text text-anchor="middle" x="207.12" y="-342.45" font-family="Arial" font-size="14.00" fill="#c6c5fe">.next/server/pages/_app.js</text>
</g>
<!-- .next/server/webpack&#45;runtime.js -->
<g id="node7" class="node">
<title>.next/server/webpack&#45;runtime.js</title>
<path fill="none" stroke="#cfffac" d="M705.83,-296.75C705.83,-296.75 514.42,-296.75 514.42,-296.75 510.46,-296.75 506.5,-292.79 506.5,-288.83 506.5,-288.83 506.5,-280.92 506.5,-280.92 506.5,-276.96 510.46,-273 514.42,-273 514.42,-273 705.83,-273 705.83,-273 709.79,-273 713.75,-276.96 713.75,-280.92 713.75,-280.92 713.75,-288.83 713.75,-288.83 713.75,-292.79 709.79,-296.75 705.83,-296.75"/>
<text text-anchor="middle" x="610.12" y="-279.45" font-family="Arial" font-size="14.00" fill="#cfffac">.next/server/webpack&#45;runtime.js</text>
</g>
<!-- .next/server/pages/_app.js&#45;&gt;.next/server/webpack&#45;runtime.js -->
<g id="edge1" class="edge">
<title>.next/server/pages/_app.js&#45;&gt;.next/server/webpack&#45;runtime.js</title>
<path fill="none" stroke="#757575" d="M294.65,-341.21C331.62,-337.8 375.17,-333.06 414.25,-326.88 459.52,-319.71 510.1,-308.72 548.38,-299.78"/>
<polygon fill="#757575" stroke="#757575" points="548.94,-303.24 557.87,-297.54 547.34,-296.43 548.94,-303.24"/>
</g>
<!-- .next/server/pages/_document.js -->
<g id="node8" class="node">
<title>.next/server/pages/_document.js</title>
<path fill="none" stroke="#c6c5fe" d="M305.08,-317.75C305.08,-317.75 109.17,-317.75 109.17,-317.75 105.21,-317.75 101.25,-313.79 101.25,-309.83 101.25,-309.83 101.25,-301.92 101.25,-301.92 101.25,-297.96 105.21,-294 109.17,-294 109.17,-294 305.08,-294 305.08,-294 309.04,-294 313,-297.96 313,-301.92 313,-301.92 313,-309.83 313,-309.83 313,-313.79 309.04,-317.75 305.08,-317.75"/>
<text text-anchor="middle" x="207.12" y="-300.45" font-family="Arial" font-size="14.00" fill="#c6c5fe">.next/server/pages/_document.js</text>
</g>
<!-- .next/server/pages/_document.js&#45;&gt;.next/server/webpack&#45;runtime.js -->
<g id="edge2" class="edge">
<title>.next/server/pages/_document.js&#45;&gt;.next/server/webpack&#45;runtime.js</title>
<path fill="none" stroke="#757575" d="M313.48,-300.36C369.28,-297.44 437.88,-293.84 494.95,-290.85"/>
<polygon fill="#757575" stroke="#757575" points="494.89,-294.36 504.69,-290.34 494.52,-287.37 494.89,-294.36"/>
</g>
<!-- .next/server/pages/_error.js -->
<g id="node9" class="node">
<title>.next/server/pages/_error.js</title>
<path fill="none" stroke="#c6c5fe" d="M288.96,-275.75C288.96,-275.75 125.29,-275.75 125.29,-275.75 121.33,-275.75 117.38,-271.79 117.38,-267.83 117.38,-267.83 117.38,-259.92 117.38,-259.92 117.38,-255.96 121.33,-252 125.29,-252 125.29,-252 288.96,-252 288.96,-252 292.92,-252 296.88,-255.96 296.88,-259.92 296.88,-259.92 296.88,-267.83 296.88,-267.83 296.88,-271.79 292.92,-275.75 288.96,-275.75"/>
<text text-anchor="middle" x="207.12" y="-258.45" font-family="Arial" font-size="14.00" fill="#c6c5fe">.next/server/pages/_error.js</text>
</g>
<!-- .next/server/pages/_error.js&#45;&gt;.next/server/webpack&#45;runtime.js -->
<g id="edge3" class="edge">
<title>.next/server/pages/_error.js&#45;&gt;.next/server/webpack&#45;runtime.js</title>
<path fill="none" stroke="#757575" d="M297.12,-268.54C355.46,-271.59 432.26,-275.61 495.06,-278.9"/>
<polygon fill="#757575" stroke="#757575" points="494.53,-282.38 504.7,-279.41 494.9,-275.39 494.53,-282.38"/>
</g>
<!-- .next/server/pages/index.js -->
<g id="node10" class="node">
<title>.next/server/pages/index.js</title>
<path fill="none" stroke="#c6c5fe" d="M287.46,-233.75C287.46,-233.75 126.79,-233.75 126.79,-233.75 122.83,-233.75 118.88,-229.79 118.88,-225.83 118.88,-225.83 118.88,-217.92 118.88,-217.92 118.88,-213.96 122.83,-210 126.79,-210 126.79,-210 287.46,-210 287.46,-210 291.42,-210 295.38,-213.96 295.38,-217.92 295.38,-217.92 295.38,-225.83 295.38,-225.83 295.38,-229.79 291.42,-233.75 287.46,-233.75"/>
<text text-anchor="middle" x="207.12" y="-216.45" font-family="Arial" font-size="14.00" fill="#c6c5fe">.next/server/pages/index.js</text>
</g>
<!-- .next/server/pages/index.js&#45;&gt;.next/server/webpack&#45;runtime.js -->
<g id="edge4" class="edge">
<title>.next/server/pages/index.js&#45;&gt;.next/server/webpack&#45;runtime.js</title>
<path fill="none" stroke="#757575" d="M295.66,-228.64C332.41,-232.03 375.52,-236.75 414.25,-242.88 459.52,-250.04 510.1,-261.03 548.38,-269.97"/>
<polygon fill="#757575" stroke="#757575" points="547.34,-273.32 557.87,-272.21 548.94,-266.51 547.34,-273.32"/>
</g>
<!-- .next/server/vendor&#45;chunks/@swc.js -->
<g id="node11" class="node">
<title>.next/server/vendor&#45;chunks/@swc.js</title>
<path fill="none" stroke="#cfffac" d="M315.96,-401.75C315.96,-401.75 98.29,-401.75 98.29,-401.75 94.33,-401.75 90.37,-397.79 90.37,-393.83 90.37,-393.83 90.37,-385.92 90.37,-385.92 90.37,-381.96 94.33,-378 98.29,-378 98.29,-378 315.96,-378 315.96,-378 319.92,-378 323.88,-381.96 323.88,-385.92 323.88,-385.92 323.88,-393.83 323.88,-393.83 323.88,-397.79 319.92,-401.75 315.96,-401.75"/>
<text text-anchor="middle" x="207.12" y="-384.45" font-family="Arial" font-size="14.00" fill="#cfffac">.next/server/vendor&#45;chunks/@swc.js</text>
</g>
<!-- .next/server/vendor&#45;chunks/leaflet.js -->
<g id="node12" class="node">
<title>.next/server/vendor&#45;chunks/leaflet.js</title>
<path fill="none" stroke="#cfffac" d="M315.21,-443.75C315.21,-443.75 99.04,-443.75 99.04,-443.75 95.08,-443.75 91.12,-439.79 91.12,-435.83 91.12,-435.83 91.12,-427.92 91.12,-427.92 91.12,-423.96 95.08,-420 99.04,-420 99.04,-420 315.21,-420 315.21,-420 319.17,-420 323.12,-423.96 323.12,-427.92 323.12,-427.92 323.12,-435.83 323.12,-435.83 323.12,-439.79 319.17,-443.75 315.21,-443.75"/>
<text text-anchor="middle" x="207.12" y="-426.45" font-family="Arial" font-size="14.00" fill="#cfffac">.next/server/vendor&#45;chunks/leaflet.js</text>
</g>
<!-- .next/server/vendor&#45;chunks/next.js -->
<g id="node13" class="node">
<title>.next/server/vendor&#45;chunks/next.js</title>
<path fill="none" stroke="#cfffac" d="M309.96,-485.75C309.96,-485.75 104.29,-485.75 104.29,-485.75 100.33,-485.75 96.38,-481.79 96.38,-477.83 96.38,-477.83 96.38,-469.92 96.38,-469.92 96.38,-465.96 100.33,-462 104.29,-462 104.29,-462 309.96,-462 309.96,-462 313.92,-462 317.88,-465.96 317.88,-469.92 317.88,-469.92 317.88,-477.83 317.88,-477.83 317.88,-481.79 313.92,-485.75 309.96,-485.75"/>
<text text-anchor="middle" x="207.12" y="-468.45" font-family="Arial" font-size="14.00" fill="#cfffac">.next/server/vendor&#45;chunks/next.js</text>
</g>
<!-- .next/static/chunks/components_aircraft_tracking_Map_index_ts.js -->
<g id="node14" class="node">
<title>.next/static/chunks/components_aircraft_tracking_Map_index_ts.js</title>
<path fill="none" stroke="#cfffac" d="M406.33,-527.75C406.33,-527.75 7.92,-527.75 7.92,-527.75 3.96,-527.75 0,-523.79 0,-519.83 0,-519.83 0,-511.92 0,-511.92 0,-507.96 3.96,-504 7.92,-504 7.92,-504 406.33,-504 406.33,-504 410.29,-504 414.25,-507.96 414.25,-511.92 414.25,-511.92 414.25,-519.83 414.25,-519.83 414.25,-523.79 410.29,-527.75 406.33,-527.75"/>
<text text-anchor="middle" x="207.12" y="-510.45" font-family="Arial" font-size="14.00" fill="#cfffac">.next/static/chunks/components_aircraft_tracking_Map_index_ts.js</text>
</g>
<!-- .next/static/chunks/main.js -->
<g id="node15" class="node">
<title>.next/static/chunks/main.js</title>
<path fill="none" stroke="#cfffac" d="M286.33,-569.75C286.33,-569.75 127.92,-569.75 127.92,-569.75 123.96,-569.75 120,-565.79 120,-561.83 120,-561.83 120,-553.92 120,-553.92 120,-549.96 123.96,-546 127.92,-546 127.92,-546 286.33,-546 286.33,-546 290.29,-546 294.25,-549.96 294.25,-553.92 294.25,-553.92 294.25,-561.83 294.25,-561.83 294.25,-565.79 290.29,-569.75 286.33,-569.75"/>
<text text-anchor="middle" x="207.12" y="-552.45" font-family="Arial" font-size="14.00" fill="#cfffac">.next/static/chunks/main.js</text>
</g>
<!-- .next/static/chunks/pages/_app.js -->
<g id="node16" class="node">
<title>.next/static/chunks/pages/_app.js</title>
<path fill="none" stroke="#cfffac" d="M306.58,-611.75C306.58,-611.75 107.67,-611.75 107.67,-611.75 103.71,-611.75 99.75,-607.79 99.75,-603.83 99.75,-603.83 99.75,-595.92 99.75,-595.92 99.75,-591.96 103.71,-588 107.67,-588 107.67,-588 306.58,-588 306.58,-588 310.54,-588 314.5,-591.96 314.5,-595.92 314.5,-595.92 314.5,-603.83 314.5,-603.83 314.5,-607.79 310.54,-611.75 306.58,-611.75"/>
<text text-anchor="middle" x="207.12" y="-594.45" font-family="Arial" font-size="14.00" fill="#cfffac">.next/static/chunks/pages/_app.js</text>
</g>
<!-- .next/static/chunks/pages/_error.js -->
<g id="node17" class="node">
<title>.next/static/chunks/pages/_error.js</title>
<path fill="none" stroke="#cfffac" d="M309.21,-653.75C309.21,-653.75 105.04,-653.75 105.04,-653.75 101.08,-653.75 97.12,-649.79 97.12,-645.83 97.12,-645.83 97.12,-637.92 97.12,-637.92 97.12,-633.96 101.08,-630 105.04,-630 105.04,-630 309.21,-630 309.21,-630 313.17,-630 317.12,-633.96 317.12,-637.92 317.12,-637.92 317.12,-645.83 317.12,-645.83 317.12,-649.79 313.17,-653.75 309.21,-653.75"/>
<text text-anchor="middle" x="207.12" y="-636.45" font-family="Arial" font-size="14.00" fill="#cfffac">.next/static/chunks/pages/_error.js</text>
</g>
<!-- .next/static/chunks/pages/index.js -->
<g id="node18" class="node">
<title>.next/static/chunks/pages/index.js</title>
<path fill="none" stroke="#cfffac" d="M307.71,-695.75C307.71,-695.75 106.54,-695.75 106.54,-695.75 102.58,-695.75 98.62,-691.79 98.62,-687.83 98.62,-687.83 98.62,-679.92 98.62,-679.92 98.62,-675.96 102.58,-672 106.54,-672 106.54,-672 307.71,-672 307.71,-672 311.67,-672 315.62,-675.96 315.62,-679.92 315.62,-679.92 315.62,-687.83 315.62,-687.83 315.62,-691.79 311.67,-695.75 307.71,-695.75"/>
<text text-anchor="middle" x="207.12" y="-678.45" font-family="Arial" font-size="14.00" fill="#cfffac">.next/static/chunks/pages/index.js</text>
</g>
<!-- .next/static/chunks/polyfills.js -->
<g id="node19" class="node">
<title>.next/static/chunks/polyfills.js</title>
<path fill="none" stroke="#cfffac" d="M293.46,-737.75C293.46,-737.75 120.79,-737.75 120.79,-737.75 116.83,-737.75 112.88,-733.79 112.88,-729.83 112.88,-729.83 112.88,-721.92 112.88,-721.92 112.88,-717.96 116.83,-714 120.79,-714 120.79,-714 293.46,-714 293.46,-714 297.42,-714 301.38,-717.96 301.38,-721.92 301.38,-721.92 301.38,-729.83 301.38,-729.83 301.38,-733.79 297.42,-737.75 293.46,-737.75"/>
<text text-anchor="middle" x="207.12" y="-720.45" font-family="Arial" font-size="14.00" fill="#cfffac">.next/static/chunks/polyfills.js</text>
</g>
<!-- .next/static/chunks/react&#45;refresh.js -->
<g id="node20" class="node">
<title>.next/static/chunks/react&#45;refresh.js</title>
<path fill="none" stroke="#cfffac" d="M309.58,-779.75C309.58,-779.75 104.67,-779.75 104.67,-779.75 100.71,-779.75 96.75,-775.79 96.75,-771.83 96.75,-771.83 96.75,-763.92 96.75,-763.92 96.75,-759.96 100.71,-756 104.67,-756 104.67,-756 309.58,-756 309.58,-756 313.54,-756 317.5,-759.96 317.5,-763.92 317.5,-763.92 317.5,-771.83 317.5,-771.83 317.5,-775.79 313.54,-779.75 309.58,-779.75"/>
<text text-anchor="middle" x="207.12" y="-762.45" font-family="Arial" font-size="14.00" fill="#cfffac">.next/static/chunks/react&#45;refresh.js</text>
</g>
<!-- .next/static/chunks/webpack.js -->
<g id="node21" class="node">
<title>.next/static/chunks/webpack.js</title>
<path fill="none" stroke="#cfffac" d="M297.96,-821.75C297.96,-821.75 116.29,-821.75 116.29,-821.75 112.33,-821.75 108.38,-817.79 108.38,-813.83 108.38,-813.83 108.38,-805.92 108.38,-805.92 108.38,-801.96 112.33,-798 116.29,-798 116.29,-798 297.96,-798 297.96,-798 301.92,-798 305.88,-801.96 305.88,-805.92 305.88,-805.92 305.88,-813.83 305.88,-813.83 305.88,-817.79 301.92,-821.75 297.96,-821.75"/>
<text text-anchor="middle" x="207.12" y="-804.45" font-family="Arial" font-size="14.00" fill="#cfffac">.next/static/chunks/webpack.js</text>
</g>
<!-- .next/static/development/_buildManifest.js -->
<g id="node22" class="node">
<title>.next/static/development/_buildManifest.js</title>
<path fill="none" stroke="#cfffac" d="M332.83,-863.75C332.83,-863.75 81.42,-863.75 81.42,-863.75 77.46,-863.75 73.5,-859.79 73.5,-855.83 73.5,-855.83 73.5,-847.92 73.5,-847.92 73.5,-843.96 77.46,-840 81.42,-840 81.42,-840 332.83,-840 332.83,-840 336.79,-840 340.75,-843.96 340.75,-847.92 340.75,-847.92 340.75,-855.83 340.75,-855.83 340.75,-859.79 336.79,-863.75 332.83,-863.75"/>
<text text-anchor="middle" x="207.12" y="-846.45" font-family="Arial" font-size="14.00" fill="#cfffac">.next/static/development/_buildManifest.js</text>
</g>
<!-- .next/static/development/_ssgManifest.js -->
<g id="node23" class="node">
<title>.next/static/development/_ssgManifest.js</title>
<path fill="none" stroke="#cfffac" d="M329.08,-905.75C329.08,-905.75 85.17,-905.75 85.17,-905.75 81.21,-905.75 77.25,-901.79 77.25,-897.83 77.25,-897.83 77.25,-889.92 77.25,-889.92 77.25,-885.96 81.21,-882 85.17,-882 85.17,-882 329.08,-882 329.08,-882 333.04,-882 337,-885.96 337,-889.92 337,-889.92 337,-897.83 337,-897.83 337,-901.79 333.04,-905.75 329.08,-905.75"/>
<text text-anchor="middle" x="207.12" y="-888.45" font-family="Arial" font-size="14.00" fill="#cfffac">.next/static/development/_ssgManifest.js</text>
</g>
<!-- components/aircraft/selector/dist/AircraftSelector.js -->
<g id="node24" class="node">
<title>components/aircraft/selector/dist/AircraftSelector.js</title>
<path fill="none" stroke="#cfffac" d="M762.08,-947.75C762.08,-947.75 458.17,-947.75 458.17,-947.75 454.21,-947.75 450.25,-943.79 450.25,-939.83 450.25,-939.83 450.25,-931.92 450.25,-931.92 450.25,-927.96 454.21,-924 458.17,-924 458.17,-924 762.08,-924 762.08,-924 766.04,-924 770,-927.96 770,-931.92 770,-931.92 770,-939.83 770,-939.83 770,-943.79 766.04,-947.75 762.08,-947.75"/>
<text text-anchor="middle" x="610.12" y="-930.45" font-family="Arial" font-size="14.00" fill="#cfffac">components/aircraft/selector/dist/AircraftSelector.js</text>
</g>
<!-- components/aircraft/selector/dist/index.js -->
<g id="node25" class="node">
<title>components/aircraft/selector/dist/index.js</title>
<path fill="none" stroke="#c6c5fe" d="M329.46,-947.75C329.46,-947.75 84.79,-947.75 84.79,-947.75 80.83,-947.75 76.88,-943.79 76.88,-939.83 76.88,-939.83 76.88,-931.92 76.88,-931.92 76.88,-927.96 80.83,-924 84.79,-924 84.79,-924 329.46,-924 329.46,-924 333.42,-924 337.38,-927.96 337.38,-931.92 337.38,-931.92 337.38,-939.83 337.38,-939.83 337.38,-943.79 333.42,-947.75 329.46,-947.75"/>
<text text-anchor="middle" x="207.12" y="-930.45" font-family="Arial" font-size="14.00" fill="#c6c5fe">components/aircraft/selector/dist/index.js</text>
</g>
<!-- components/aircraft/selector/dist/index.js&#45;&gt;components/aircraft/selector/dist/AircraftSelector.js -->
<g id="edge5" class="edge">
<title>components/aircraft/selector/dist/index.js&#45;&gt;components/aircraft/selector/dist/AircraftSelector.js</title>
<path fill="none" stroke="#757575" d="M337.76,-935.88C369.84,-935.88 404.68,-935.88 438.38,-935.88"/>
<polygon fill="#757575" stroke="#757575" points="438.25,-939.38 448.25,-935.88 438.25,-932.38 438.25,-939.38"/>
</g>
<!-- components/aircraft/tracking/dist/AircraftTrackingContainer.js -->
<g id="node26" class="node">
<title>components/aircraft/tracking/dist/AircraftTrackingContainer.js</title>
<path fill="none" stroke="#cfffac" d="M389.46,-989.75C389.46,-989.75 24.79,-989.75 24.79,-989.75 20.83,-989.75 16.88,-985.79 16.88,-981.83 16.88,-981.83 16.88,-973.92 16.88,-973.92 16.88,-969.96 20.83,-966 24.79,-966 24.79,-966 389.46,-966 389.46,-966 393.42,-966 397.38,-969.96 397.38,-973.92 397.38,-973.92 397.38,-981.83 397.38,-981.83 397.38,-985.79 393.42,-989.75 389.46,-989.75"/>
<text text-anchor="middle" x="207.12" y="-972.45" font-family="Arial" font-size="14.00" fill="#cfffac">components/aircraft/tracking/dist/AircraftTrackingContainer.js</text>
</g>
<!-- components/shared/dist/LoadingSpinner.js -->
<g id="node27" class="node">
<title>components/shared/dist/LoadingSpinner.js</title>
<path fill="none" stroke="#cfffac" d="M334.71,-1031.75C334.71,-1031.75 79.54,-1031.75 79.54,-1031.75 75.58,-1031.75 71.62,-1027.79 71.62,-1023.83 71.62,-1023.83 71.62,-1015.92 71.62,-1015.92 71.62,-1011.96 75.58,-1008 79.54,-1008 79.54,-1008 334.71,-1008 334.71,-1008 338.67,-1008 342.62,-1011.96 342.62,-1015.92 342.62,-1015.92 342.62,-1023.83 342.62,-1023.83 342.62,-1027.79 338.67,-1031.75 334.71,-1031.75"/>
<text text-anchor="middle" x="207.12" y="-1014.45" font-family="Arial" font-size="14.00" fill="#cfffac">components/shared/dist/LoadingSpinner.js</text>
</g>
<!-- components/ui/Card/dist/Card.js -->
<g id="node28" class="node">
<title>components/ui/Card/dist/Card.js</title>
<path fill="none" stroke="#cfffac" d="M303.58,-1073.75C303.58,-1073.75 110.67,-1073.75 110.67,-1073.75 106.71,-1073.75 102.75,-1069.79 102.75,-1065.83 102.75,-1065.83 102.75,-1057.92 102.75,-1057.92 102.75,-1053.96 106.71,-1050 110.67,-1050 110.67,-1050 303.58,-1050 303.58,-1050 307.54,-1050 311.5,-1053.96 311.5,-1057.92 311.5,-1057.92 311.5,-1065.83 311.5,-1065.83 311.5,-1069.79 307.54,-1073.75 303.58,-1073.75"/>
<text text-anchor="middle" x="207.12" y="-1056.45" font-family="Arial" font-size="14.00" fill="#cfffac">components/ui/Card/dist/Card.js</text>
</g>
<!-- components/ui/Select/dist/Select.js -->
<g id="node29" class="node">
<title>components/ui/Select/dist/Select.js</title>
<path fill="none" stroke="#cfffac" d="M714.83,-1115.75C714.83,-1115.75 505.42,-1115.75 505.42,-1115.75 501.46,-1115.75 497.5,-1111.79 497.5,-1107.83 497.5,-1107.83 497.5,-1099.92 497.5,-1099.92 497.5,-1095.96 501.46,-1092 505.42,-1092 505.42,-1092 714.83,-1092 714.83,-1092 718.79,-1092 722.75,-1095.96 722.75,-1099.92 722.75,-1099.92 722.75,-1107.83 722.75,-1107.83 722.75,-1111.79 718.79,-1115.75 714.83,-1115.75"/>
<text text-anchor="middle" x="610.12" y="-1098.45" font-family="Arial" font-size="14.00" fill="#cfffac">components/ui/Select/dist/Select.js</text>
</g>
<!-- components/ui/Select/dist/index.js -->
<g id="node30" class="node">
<title>components/ui/Select/dist/index.js</title>
<path fill="none" stroke="#c6c5fe" d="M309.21,-1115.75C309.21,-1115.75 105.04,-1115.75 105.04,-1115.75 101.08,-1115.75 97.12,-1111.79 97.12,-1107.83 97.12,-1107.83 97.12,-1099.92 97.12,-1099.92 97.12,-1095.96 101.08,-1092 105.04,-1092 105.04,-1092 309.21,-1092 309.21,-1092 313.17,-1092 317.12,-1095.96 317.12,-1099.92 317.12,-1099.92 317.12,-1107.83 317.12,-1107.83 317.12,-1111.79 313.17,-1115.75 309.21,-1115.75"/>
<text text-anchor="middle" x="207.12" y="-1098.45" font-family="Arial" font-size="14.00" fill="#c6c5fe">components/ui/Select/dist/index.js</text>
</g>
<!-- components/ui/Select/dist/index.js&#45;&gt;components/ui/Select/dist/Select.js -->
<g id="edge6" class="edge">
<title>components/ui/Select/dist/index.js&#45;&gt;components/ui/Select/dist/Select.js</title>
<path fill="none" stroke="#757575" d="M317.44,-1103.88C369.51,-1103.88 432,-1103.88 485.77,-1103.88"/>
<polygon fill="#757575" stroke="#757575" points="485.59,-1107.38 495.59,-1103.88 485.59,-1100.38 485.59,-1107.38"/>
</g>
<!-- next.config.js -->
<g id="node31" class="node">
<title>next.config.js</title>
<path fill="none" stroke="#cfffac" d="M246.58,-1157.75C246.58,-1157.75 167.67,-1157.75 167.67,-1157.75 163.71,-1157.75 159.75,-1153.79 159.75,-1149.83 159.75,-1149.83 159.75,-1141.92 159.75,-1141.92 159.75,-1137.96 163.71,-1134 167.67,-1134 167.67,-1134 246.58,-1134 246.58,-1134 250.54,-1134 254.5,-1137.96 254.5,-1141.92 254.5,-1141.92 254.5,-1149.83 254.5,-1149.83 254.5,-1153.79 250.54,-1157.75 246.58,-1157.75"/>
<text text-anchor="middle" x="207.12" y="-1140.45" font-family="Arial" font-size="14.00" fill="#cfffac">next.config.js</text>
</g>
<!-- pages/api/dist/aircraft.js -->
<g id="node32" class="node">
<title>pages/api/dist/aircraft.js</title>
<path fill="none" stroke="#cfffac" d="M278.08,-1199.75C278.08,-1199.75 136.17,-1199.75 136.17,-1199.75 132.21,-1199.75 128.25,-1195.79 128.25,-1191.83 128.25,-1191.83 128.25,-1183.92 128.25,-1183.92 128.25,-1179.96 132.21,-1176 136.17,-1176 136.17,-1176 278.08,-1176 278.08,-1176 282.04,-1176 286,-1179.96 286,-1183.92 286,-1183.92 286,-1191.83 286,-1191.83 286,-1195.79 282.04,-1199.75 278.08,-1199.75"/>
<text text-anchor="middle" x="207.12" y="-1182.45" font-family="Arial" font-size="14.00" fill="#cfffac">pages/api/dist/aircraft.js</text>
</g>
<!-- pages/api/dist/luna.js -->
<g id="node33" class="node">
<title>pages/api/dist/luna.js</title>
<path fill="none" stroke="#cfffac" d="M270.21,-1241.75C270.21,-1241.75 144.04,-1241.75 144.04,-1241.75 140.08,-1241.75 136.12,-1237.79 136.12,-1233.83 136.12,-1233.83 136.12,-1225.92 136.12,-1225.92 136.12,-1221.96 140.08,-1218 144.04,-1218 144.04,-1218 270.21,-1218 270.21,-1218 274.17,-1218 278.12,-1221.96 278.12,-1225.92 278.12,-1225.92 278.12,-1233.83 278.12,-1233.83 278.12,-1237.79 274.17,-1241.75 270.21,-1241.75"/>
<text text-anchor="middle" x="207.12" y="-1224.45" font-family="Arial" font-size="14.00" fill="#cfffac">pages/api/dist/luna.js</text>
</g>
<!-- pages/api/dist/opensky.js -->
<g id="node34" class="node">
<title>pages/api/dist/opensky.js</title>
<path fill="none" stroke="#cfffac" d="M282.21,-1283.75C282.21,-1283.75 132.04,-1283.75 132.04,-1283.75 128.08,-1283.75 124.12,-1279.79 124.12,-1275.83 124.12,-1275.83 124.12,-1267.92 124.12,-1267.92 124.12,-1263.96 128.08,-1260 132.04,-1260 132.04,-1260 282.21,-1260 282.21,-1260 286.17,-1260 290.12,-1263.96 290.12,-1267.92 290.12,-1267.92 290.12,-1275.83 290.12,-1275.83 290.12,-1279.79 286.17,-1283.75 282.21,-1283.75"/>
<text text-anchor="middle" x="207.12" y="-1266.45" font-family="Arial" font-size="14.00" fill="#cfffac">pages/api/dist/opensky.js</text>
</g>
<!-- postcss.config.js -->
<g id="node35" class="node">
<title>postcss.config.js</title>
<path fill="none" stroke="#cfffac" d="M256.71,-1325.75C256.71,-1325.75 157.54,-1325.75 157.54,-1325.75 153.58,-1325.75 149.62,-1321.79 149.62,-1317.83 149.62,-1317.83 149.62,-1309.92 149.62,-1309.92 149.62,-1305.96 153.58,-1302 157.54,-1302 157.54,-1302 256.71,-1302 256.71,-1302 260.67,-1302 264.62,-1305.96 264.62,-1309.92 264.62,-1309.92 264.62,-1317.83 264.62,-1317.83 264.62,-1321.79 260.67,-1325.75 256.71,-1325.75"/>
<text text-anchor="middle" x="207.12" y="-1308.45" font-family="Arial" font-size="14.00" fill="#cfffac">postcss.config.js</text>
</g>
<!-- tailwind.config.js -->
<g id="node36" class="node">
<title>tailwind.config.js</title>
<path fill="none" stroke="#cfffac" d="M256.33,-1367.75C256.33,-1367.75 157.92,-1367.75 157.92,-1367.75 153.96,-1367.75 150,-1363.79 150,-1359.83 150,-1359.83 150,-1351.92 150,-1351.92 150,-1347.96 153.96,-1344 157.92,-1344 157.92,-1344 256.33,-1344 256.33,-1344 260.29,-1344 264.25,-1347.96 264.25,-1351.92 264.25,-1351.92 264.25,-1359.83 264.25,-1359.83 264.25,-1363.79 260.29,-1367.75 256.33,-1367.75"/>
<text text-anchor="middle" x="207.12" y="-1350.45" font-family="Arial" font-size="14.00" fill="#cfffac">tailwind.config.js</text>
</g>
</g>
</svg>
